<?xml version="1.0" standalone="no"?>
<!DOCTYPE svg PUBLIC "-//W3C//DTD SVG 20010904//EN"
 "http://www.w3.org/TR/2001/REC-SVG-20010904/DTD/svg10.dtd">
<svg version="1.0" xmlns="http://www.w3.org/2000/svg"
 width="512.000000pt" height="512.000000pt" viewBox="0 0 512.000000 512.000000"
 preserveAspectRatio="xMidYMid meet">
<metadata>
Created by potrace 1.11, written by Peter Selinger 2001-2013
</metadata>
<g transform="translate(0.000000,512.000000) scale(0.100000,-0.100000)"
fill="#000000" stroke="none">
<path d="M1590 4223 c-309 -48 -516 -217 -576 -469 -21 -91 -22 -102 -24 -359
-3 -249 -14 -334 -58 -426 -61 -127 -166 -196 -342 -225 -68 -11 -86 -12 -202
-13 l-108 -1 0 -210 0 -210 113 -1 c61 0 121 -2 132 -4 11 -2 40 -7 65 -10
150 -21 267 -90 327 -192 47 -81 65 -171 69 -358 7 -281 12 -398 18 -430 51
-241 199 -400 440 -474 105 -32 118 -33 459 -38 l317 -5 0 196 0 196 -142 1
c-79 0 -152 2 -163 4 -11 1 -42 6 -68 9 -107 13 -190 72 -232 162 -37 81 -43
127 -46 369 -2 236 -27 341 -109 460 -38 56 -117 133 -173 172 -23 15 -44 31
-47 34 -3 4 -48 27 -101 53 -90 43 -117 64 -101 81 4 3 43 23 88 44 261 123
413 312 438 546 3 28 6 125 7 216 1 185 16 280 54 345 45 76 123 126 220 140
82 11 94 12 238 13 l137 1 0 195 0 196 -302 -2 c-167 -1 -314 -4 -328 -6z"/>
<path d="M2920 4035 l0 -195 138 -1 c75 0 151 -2 167 -4 139 -18 179 -32 238
-85 72 -64 96 -141 103 -325 9 -295 13 -352 29 -405 60 -198 205 -344 457
-460 44 -20 64 -41 51 -54 -3 -3 -45 -24 -92 -47 -153 -74 -269 -169 -342
-282 -76 -117 -96 -209 -98 -447 -3 -212 -5 -236 -30 -320 -36 -118 -124 -189
-253 -206 -29 -4 -60 -8 -68 -10 -8 -1 -79 -3 -157 -3 l-143 -1 0 -196 0 -196
328 5 c298 4 334 6 409 26 166 45 295 129 376 244 42 60 83 147 92 197 3 14 9
48 14 75 5 28 10 147 11 265 1 254 5 293 30 383 46 164 142 251 325 293 92 21
101 22 238 23 l117 1 0 210 0 210 -97 1 c-157 2 -226 10 -308 36 -168 53 -246
140 -285 320 -15 68 -19 131 -20 307 -1 225 -2 237 -14 316 -35 214 -185 389
-396 466 -120 43 -213 52 -522 54 l-298 1 0 -196z"/>
</g>
</svg>
